<?xml version="1.0" encoding="utf-8"?>

<svg
	version="1.1"
	id="layer"
	xmlns="http://www.w3.org/2000/svg"
	xmlns:xlink="http://www.w3.org/1999/xlink"
	x="0px"
	y="0px"
	viewBox="0 0 40 40"
	style="enable-background:new 0 0 40 40;"
	xml:space="preserve"
	width="current"
	height="current"
>
	<path
		d="M20,5c-3.9,0-7,3.1-7,7s3.1,7,7,7s7-3.1,7-7S23.9,5,20,5z M20,15c-1.7,0-3-1.3-3-3s1.3-3,3-3s3,1.3,3,3S21.7,15,20,15z"
		fill="current"
	/>
	<g>
		<path
			d="M20,24c4.9,0,9.5,2.3,12.5,6c-3,3.7-7.6,6-12.5,6s-9.5-2.3-12.5-6C10.5,26.3,15.1,24,20,24 M20,20c-7.4,0-13.8,4-17.3,10c3.5,6,9.9,10,17.3,10s13.8-4,17.3-10C33.8,24,27.4,20,20,20L20,20z"
			fill="current"
		/>
	</g>
	<g>
		<path
			d="M20,4c8.8,0,16,7.2,16,16s-7.2,16-16,16S4,28.8,4,20S11.2,4,20,4 M20,0C9,0,0,9,0,20s9,20,20,20s20-9,20-20S31,0,20,0L20,0z"
			fill="current"
		/>
	</g>
</svg>
