<?xml version="1.0" encoding="utf-8"?>
<!-- Generator: Adobe Illustrator 25.1.0, SVG Export Plug-In . SVG Version: 6.00 Build 0)  -->
<svg
	version="1.1"
	id="layer"
	xmlns="http://www.w3.org/2000/svg"
	xmlns:xlink="http://www.w3.org/1999/xlink"
	x="0px"
	y="0px"
	viewBox="0 0 40 40"
	style="enable-background:new 0 0 40 40;"
	xml:space="preserve"
	width="current"
	height="current"
>
	<g>
		<g>
			<path
				d="M19.5,6c7.7,0,14,4.9,14,11c0,1.4-0.3,2.7-1,4l-0.7,1.5l0.5,1.5c0.6,1.9,1.1,3.6,1.4,5.2c-1.7-0.5-3.5-1.2-4.9-2l-1.6-0.9l-1.7,0.6c-1.9,0.7-3.9,1.1-6,1.1c-7.7,0-14-4.9-14-11S11.8,6,19.5,6 M19.5,2c-9.9,0-18,6.7-18,15s8.1,15,18,15c2.6,0,5.1-0.5,7.4-1.3c4.5,2.4,11.6,3.9,11.6,3.9c0-3.5-1.3-8.4-2.4-11.8c0.9-1.8,1.4-3.7,1.4-5.8C37.5,8.7,29.4,2,19.5,2L19.5,2z"
				fill="current"
			/>
		</g>
		<g>
			<path
				d="M13,15c-1.1,0-2,0.9-2,2s0.9,2,2,2s2-0.9,2-2S14.1,15,13,15L13,15z"
				fill="current"
			/>
		</g>
		<g>
			<path
				d="M20,15c-1.1,0-2,0.9-2,2s0.9,2,2,2s2-0.9,2-2S21.1,15,20,15L20,15z"
				fill="current"
			/>
		</g>
		<g>
			<path
				d="M27,15c-1.1,0-2,0.9-2,2s0.9,2,2,2s2-0.9,2-2S28.1,15,27,15L27,15z"
				fill="current"
			/>
		</g>
	</g>
</svg>
