<?xml version="1.0" encoding="utf-8"?>
<!-- Generator: Adobe Illustrator 25.1.0, SVG Export Plug-In . SVG Version: 6.00 Build 0)  -->
<svg
	version="1.1"
	id="layer"
	xmlns="http://www.w3.org/2000/svg"
	xmlns:xlink="http://www.w3.org/1999/xlink"
	x="0px"
	y="0px"
	viewBox="0 0 40 40" 
	style="enable-background:new 0 0 40 40;"
	xml:space="preserve"
	width="current"
	height="current"
>
	<path
		d="M36.1,22.8c0.9-1.8,1.4-3.7,1.4-5.8c0-8.3-8.1-15-18-15s-18,6.7-18,15s8.1,15,18,15c2.6,0,5.1-0.5,7.4-1.3c4.5,2.4,11.6,3.9,11.6,3.9C38.5,31.1,37.2,26.2,36.1,22.8z M13,19c-1.1,0-2-0.9-2-2s0.9-2,2-2s2,0.9,2,2S14.1,19,13,19z M20,19c-1.1,0-2-0.9-2-2s0.9-2,2-2s2,0.9,2,2S21.1,19,20,19z M27,19c-1.1,0-2-0.9-2-2s0.9-2,2-2s2,0.9,2,2S28.1,19,27,19z"
		fill="current"
	/>
</svg>
