<?xml version="1.0" encoding="utf-8"?>
<!-- Generator: Adobe Illustrator 25.1.0, SVG Export Plug-In . SVG Version: 6.00 Build 0)  -->
<svg
	version="1.1"
	id="layer"
	xmlns="http://www.w3.org/2000/svg"
	xmlns:xlink="http://www.w3.org/1999/xlink"
	x="0px"
	y="0px"
	viewBox="0 0 40 40"
	style="enable-background:new 0 0 40 40;"
	xml:space="preserve"
	width="current"
	height="current"
>
	<path
		d="M27.9,6c3.3,0,6.1,3.4,6.1,7.2c0,9.4-9.7,17.1-14,20c-4.3-3-14-10.7-14-20C6,9.4,8.9,6,12.1,6c0.1,0,0.1,0,0.2,0c1.7,0.1,3.3,1,4.4,2.6l3.3,4.6l3.3-4.6C24.4,7,26,6.1,27.7,6C27.7,6,27.8,6,27.9,6 M27.9,2c-0.1,0-0.2,0-0.4,0c-3,0.1-5.7,1.8-7.5,4.3c-1.8-2.5-4.5-4.2-7.5-4.3c-0.1,0-0.2,0-0.4,0C6.8,2,2,7.1,2,13.2C2,27.7,20,38,20,38s18-10.3,18-24.8C38,7.1,33.2,2,27.9,2L27.9,2z"
		fill="current"
	/>
</svg>
