<?xml version="1.0" encoding="utf-8"?>

<svg
	version="1.1"
	id="layer"
	xmlns="http://www.w3.org/2000/svg"
	xmlns:xlink="http://www.w3.org/1999/xlink"
	x="0px"
	y="0px"
	viewBox="0 0 40 40"
	style="enable-background:new 0 0 40 40;"
	xml:space="preserve"
	width="current"
	height="current"
>
	<path
		d="M35,4h-6c0-1.1-0.9-2-2-2H12c-1.1,0-2,0.9-2,2H4C2.9,4,2,4.9,2,6s0.9,2,2,2h31c1.1,0,2-0.9,2-2S36.1,4,35,4z"
		fill="current"
	/>
	<path
		d="M6,10v24c0,2.2,1.8,4,4,4h19c2.2,0,4-1.8,4-4V10H6z M14,32c0,1.1-0.9,2-2,2s-2-0.9-2-2V16c0-1.1,0.9-2,2-2s2,0.9,2,2V32z M22,32c0,1.1-0.9,2-2,2s-2-0.9-2-2V16c0-1.1,0.9-2,2-2s2,0.9,2,2V32z M30,32c0,1.1-0.9,2-2,2s-2-0.9-2-2V16c0-1.1,0.9-2,2-2s2,0.9,2,2V32z"
		fill="current"
	/>
</svg>
