<?xml version="1.0" encoding="utf-8"?>

<svg
	version="1.1"
	id="layer"
	xmlns="http://www.w3.org/2000/svg"
	xmlns:xlink="http://www.w3.org/1999/xlink"
	x="0px"
	y="0px"
	viewBox="0 0 40 40"
	style="enable-background:new 0 0 40 40;"
	xml:space="preserve"
	width="current"
	height="current"
>
	<g>
		<path
			d="M20,7C9,7,0,20,0,20s9,13,20,13s20-13,20-13S31,7,20,7z M20,31c-6.1,0-11-4.9-11-11S13.9,9,20,9s11,4.9,11,11S26.1,31,20,31z"
		/>
		<path
			d="M20,12c-1.4,0-2.7,0.4-3.9,1c1.6,0.1,2.9,1.4,2.9,3c0,1.7-1.3,3-3,3c-1.6,0-2.9-1.3-3-2.9c-0.6,1.2-1,2.5-1,3.9c0,4.4,3.6,8,8,8s8-3.6,8-8S24.4,12,20,12z"
		/>
	</g>
	<path
		d="M34.1,31.3L8.7,5.9c-0.8-0.8-2-0.8-2.8,0l0,0c-0.8,0.8-0.8,2,0,2.8l25.5,25.5c0.8,0.8,2,0.8,2.8,0l0,0C34.9,33.4,34.9,32.1,34.1,31.3z"
	/>
</svg>
